<?xml version="1.0" encoding="UTF-8"?>
<svg width="284px" height="35px" viewBox="0 0 284 35" version="1.1" xmlns="http://www.w3.org/2000/svg" xmlns:xlink="http://www.w3.org/1999/xlink">
    <title>Group</title>
    <g id="Page-1" stroke="none" stroke-width="1" fill="none" fill-rule="evenodd">
        <g id="t" transform="translate(-90.000000, -95.000000)">
            <g id="Group" transform="translate(90.000000, 95.000000)">
                <rect id="Rectangle" x="0" y="0" width="284" height="35"></rect>
                <path d="M13.22,28 L13.22,17.95 L24.47,17.95 L24.47,28 L27.38,28 L27.38,6.46 L24.47,6.46 L24.47,15.37 L13.22,15.37 L13.22,6.46 L10.31,6.46 L10.31,28 L13.22,28 Z M38.1498,28.45 C39.9298,28.45 41.4198,27.98 42.6198,27.04 C43.8198,26.1 44.5898,24.78 44.9298,23.08 L44.9298,23.08 L42.2898,23.08 C42.1498,23.98 41.6848,24.72 40.8948,25.3 C40.1048,25.88 39.1798,26.17 38.1198,26.17 C35.9598,26.17 34.5898,25.22 34.0098,23.32 C33.8298,22.76 33.7198,21.99 33.6798,21.01 L33.6798,21.01 L45.1398,21.01 C45.0398,19.29 44.8898,17.98 44.6898,17.08 C44.5298,16.42 44.2398,15.71 43.8198,14.95 C42.6598,12.89 40.8198,11.86 38.2998,11.86 C36.0198,11.86 34.2098,12.635 32.8698,14.185 C31.5298,15.735 30.8598,17.82 30.8598,20.44 C30.8598,22.94 31.5048,24.9 32.7948,26.32 C34.0848,27.74 35.8698,28.45 38.1498,28.45 Z M42.4098,18.91 L33.6798,18.91 C33.7798,17.49 34.2348,16.355 35.0448,15.505 C35.8548,14.655 36.8998,14.23 38.1798,14.23 C40.0998,14.23 41.3698,15.08 41.9898,16.78 C42.1698,17.26 42.3098,17.97 42.4098,18.91 L42.4098,18.91 Z M51.7696,28 L51.7696,14.5 L54.2896,14.5 L54.2896,12.31 L51.7696,12.31 L51.7696,7.93 L49.1296,7.93 L49.1296,12.31 L46.9996,12.31 L46.9996,14.5 L49.1296,14.5 L49.1296,28 L51.7696,28 Z M68.1192,28 L68.1192,10.6 L68.1792,10.6 L79.1292,28 L82.3992,28 L82.3992,6.46 L79.5792,6.46 L79.5792,23.86 L79.5192,23.86 L68.7492,6.46 L65.2992,6.46 L65.2992,28 L68.1192,28 Z M89.329,9.46 L89.329,6.46 L86.689,6.46 L86.689,9.46 L89.329,9.46 Z M89.329,28 L89.329,12.31 L86.689,12.31 L86.689,28 L89.329,28 Z M99.8288,28.45 C101.6088,28.45 103.0988,27.98 104.2988,27.04 C105.4988,26.1 106.2688,24.78 106.6088,23.08 L106.6088,23.08 L103.9688,23.08 C103.8288,23.98 103.3638,24.72 102.5738,25.3 C101.7838,25.88 100.8588,26.17 99.7988,26.17 C97.6388,26.17 96.2688,25.22 95.6888,23.32 C95.5088,22.76 95.3988,21.99 95.3588,21.01 L95.3588,21.01 L106.8188,21.01 C106.7188,19.29 106.5688,17.98 106.3688,17.08 C106.2088,16.42 105.9188,15.71 105.4988,14.95 C104.3388,12.89 102.4988,11.86 99.9788,11.86 C97.6988,11.86 95.8888,12.635 94.5488,14.185 C93.2088,15.735 92.5388,17.82 92.5388,20.44 C92.5388,22.94 93.1838,24.9 94.4738,26.32 C95.7638,27.74 97.5488,28.45 99.8288,28.45 Z M104.0888,18.91 L95.3588,18.91 C95.4588,17.49 95.9138,16.355 96.7238,15.505 C97.5338,14.655 98.5788,14.23 99.8588,14.23 C101.7788,14.23 103.0488,15.08 103.6688,16.78 C103.8488,17.26 103.9888,17.97 104.0888,18.91 L104.0888,18.91 Z M116.3586,28.45 C118.1786,28.45 119.6786,27.95 120.8586,26.95 C122.1186,25.89 122.7486,24.41 122.7486,22.51 L122.7486,22.51 L122.7486,12.31 L120.1086,12.31 L120.1086,22.33 C120.1086,23.55 119.7786,24.495 119.1186,25.165 C118.4586,25.835 117.5386,26.17 116.3586,26.17 C115.1786,26.17 114.2586,25.835 113.5986,25.165 C112.9386,24.495 112.6086,23.55 112.6086,22.33 L112.6086,22.33 L112.6086,12.31 L109.9686,12.31 L109.9686,22.51 C109.9686,24.35 110.5586,25.8 111.7386,26.86 C112.9186,27.92 114.4586,28.45 116.3586,28.45 Z M132.3784,28 L135.4384,15.85 L135.4984,15.85 L138.6784,28 L141.4084,28 L145.9684,12.31 L143.3284,12.31 L140.1484,24.64 L140.0884,24.64 L137.0284,12.31 L134.0884,12.31 L131.0584,24.64 L130.9984,24.64 L127.9984,12.31 L125.1184,12.31 L129.6484,28 L132.3784,28 Z M154.8482,28.45 C156.6282,28.45 158.1182,27.98 159.3182,27.04 C160.5182,26.1 161.2882,24.78 161.6282,23.08 L161.6282,23.08 L158.9882,23.08 C158.8482,23.98 158.3832,24.72 157.5932,25.3 C156.8032,25.88 155.8782,26.17 154.8182,26.17 C152.6582,26.17 151.2882,25.22 150.7082,23.32 C150.5282,22.76 150.4182,21.99 150.3782,21.01 L150.3782,21.01 L161.8382,21.01 C161.7382,19.29 161.5882,17.98 161.3882,17.08 C161.2282,16.42 160.9382,15.71 160.5182,14.95 C159.3582,12.89 157.5182,11.86 154.9982,11.86 C152.7182,11.86 150.9082,12.635 149.5682,14.185 C148.2282,15.735 147.5582,17.82 147.5582,20.44 C147.5582,22.94 148.2032,24.9 149.4932,26.32 C150.7832,27.74 152.5682,28.45 154.8482,28.45 Z M159.1082,18.91 L150.3782,18.91 C150.4782,17.49 150.9332,16.355 151.7432,15.505 C152.5532,14.655 153.5982,14.23 154.8782,14.23 C156.7982,14.23 158.0682,15.08 158.6882,16.78 C158.8682,17.26 159.0082,17.97 159.1082,18.91 L159.1082,18.91 Z M179.1778,28 L179.1778,25.42 L177.0178,25.42 L177.0178,9.04 L179.1778,9.04 L179.1778,6.46 L171.9478,6.46 L171.9478,9.04 L174.1078,9.04 L174.1078,25.42 L171.9478,25.42 L171.9478,28 L179.1778,28 Z M184.3076,28 L184.3076,19.45 C184.3076,17.85 184.6876,16.58 185.4476,15.64 C186.2076,14.7 187.2376,14.23 188.5376,14.23 C189.6976,14.23 190.5326,14.555 191.0426,15.205 C191.5526,15.855 191.8076,16.9 191.8076,18.34 L191.8076,18.34 L191.8076,28 L194.4476,28 L194.4476,17.32 C194.4476,15.6 193.9776,14.26 193.0376,13.3 C192.0976,12.34 190.7976,11.86 189.1376,11.86 C187.1576,11.86 185.5176,12.75 184.2176,14.53 L184.2176,14.53 L184.1576,14.53 L184.1576,12.31 L181.6676,12.31 L181.6676,28 L184.3076,28 Z M203.8674,28.45 C205.8274,28.45 207.3924,27.985 208.5624,27.055 C209.7324,26.125 210.3174,24.87 210.3174,23.29 C210.3174,22.17 209.9824,21.295 209.3124,20.665 C208.6424,20.035 207.5074,19.52 205.9074,19.12 L205.9074,19.12 L203.2674,18.46 L202.7274,18.31 C201.8074,18.05 201.1924,17.795 200.8824,17.545 C200.5724,17.295 200.4174,16.91 200.4174,16.39 C200.4174,14.89 201.4974,14.14 203.6574,14.14 C205.9374,14.14 207.1374,15.02 207.2574,16.78 L207.2574,16.78 L209.8074,16.78 C209.7074,15.22 209.1374,14.01 208.0974,13.15 C207.0574,12.29 205.6474,11.86 203.8674,11.86 C202.0474,11.86 200.5924,12.31 199.5024,13.21 C198.4124,14.11 197.8674,15.31 197.8674,16.81 C197.8674,18.79 199.0774,20.08 201.4974,20.68 L201.4974,20.68 L204.5574,21.43 C205.7774,21.73 206.6024,22.035 207.0324,22.345 C207.4624,22.655 207.6774,23.1 207.6774,23.68 C207.6774,24.46 207.3474,25.07 206.6874,25.51 C206.0274,25.95 205.1274,26.17 203.9874,26.17 C202.1474,26.17 200.9374,25.66 200.3574,24.64 C200.1374,24.24 199.9874,23.68 199.9074,22.96 L199.9074,22.96 L197.3574,22.96 C197.4974,24.86 198.0474,26.21 199.0074,27.01 C200.1674,27.97 201.7874,28.45 203.8674,28.45 Z M216.8272,28 L216.8272,14.5 L219.3472,14.5 L219.3472,12.31 L216.8272,12.31 L216.8272,7.93 L214.1872,7.93 L214.1872,12.31 L212.0572,12.31 L212.0572,14.5 L214.1872,14.5 L214.1872,28 L216.8272,28 Z M224.387,9.46 L224.387,6.46 L221.747,6.46 L221.747,9.46 L224.387,9.46 Z M224.387,28 L224.387,12.31 L221.747,12.31 L221.747,28 L224.387,28 Z M231.8268,28 L231.8268,14.5 L234.3468,14.5 L234.3468,12.31 L231.8268,12.31 L231.8268,7.93 L229.1868,7.93 L229.1868,12.31 L227.0568,12.31 L227.0568,14.5 L229.1868,14.5 L229.1868,28 L231.8268,28 Z M243.0766,28.45 C244.8966,28.45 246.3966,27.95 247.5766,26.95 C248.8366,25.89 249.4666,24.41 249.4666,22.51 L249.4666,22.51 L249.4666,12.31 L246.8266,12.31 L246.8266,22.33 C246.8266,23.55 246.4966,24.495 245.8366,25.165 C245.1766,25.835 244.2566,26.17 243.0766,26.17 C241.8966,26.17 240.9766,25.835 240.3166,25.165 C239.6566,24.495 239.3266,23.55 239.3266,22.33 L239.3266,22.33 L239.3266,12.31 L236.6866,12.31 L236.6866,22.51 C236.6866,24.35 237.2766,25.8 238.4566,26.86 C239.6366,27.92 241.1766,28.45 243.0766,28.45 Z M259.7564,28.45 C261.5764,28.45 263.0764,27.95 264.2564,26.95 C265.5164,25.89 266.1464,24.41 266.1464,22.51 L266.1464,22.51 L266.1464,12.31 L263.5064,12.31 L263.5064,22.33 C263.5064,23.55 263.1764,24.495 262.5164,25.165 C261.8564,25.835 260.9364,26.17 259.7564,26.17 C258.5764,26.17 257.6564,25.835 256.9964,25.165 C256.3364,24.495 256.0064,23.55 256.0064,22.33 L256.0064,22.33 L256.0064,12.31 L253.3664,12.31 L253.3664,22.51 C253.3664,24.35 253.9564,25.8 255.1364,26.86 C256.3164,27.92 257.8564,28.45 259.7564,28.45 Z M273.5262,28 L273.5262,14.5 L276.0462,14.5 L276.0462,12.31 L273.5262,12.31 L273.5262,7.93 L270.8862,7.93 L270.8862,12.31 L268.7562,12.31 L268.7562,14.5 L270.8862,14.5 L270.8862,28 L273.5262,28 Z" id="HetNieuweInstituut" fill="#000000" fill-rule="nonzero"></path>
            </g>
        </g>
    </g>
</svg>